<svg width="23" height="23" viewBox="0 0 23 23" fill="none" xmlns="http://www.w3.org/2000/svg">
<path fill-rule="evenodd" clip-rule="evenodd" d="M22.4056 19.5333C23.1981 20.3253 23.1981 21.6134 22.4056 22.4055C21.6135 23.1982 20.3253 23.1982 19.5387 22.4055L13.6664 16.5382C12.2968 17.3922 10.6815 17.8878 8.94383 17.8878C4.00167 17.8878 0 13.8859 0 8.94377C0 4.00182 4.00167 0 8.94383 0C13.8859 0 17.8877 4.00182 17.8877 8.94377C17.8877 10.6764 17.3916 12.2967 16.5381 13.6663L22.4056 19.5333ZM15.3323 8.94377C15.3323 5.41751 12.4705 2.55536 8.94383 2.55536C5.41721 2.55536 2.55532 5.41751 2.55532 8.94377C2.55532 12.4704 5.41721 15.3322 8.94383 15.3322C12.4705 15.3322 15.3323 12.4704 15.3323 8.94377Z" fill="white"/>
</svg>
